<svg version="1.1" xmlns="http://www.w3.org/2000/svg" viewBox="0 0 2395.070582798548 230.16185389927477" width="2395.070582798548" height="230.16185389927477" filter="invert(93%) hue-rotate(180deg)">
  <!-- svg-source:excalidraw -->
  
  <defs>
    <style class="style-fonts">
      @font-face {
        font-family: "Virgil";
        src: url("https://excalidraw.com/Virgil.woff2");
      }
      @font-face {
        font-family: "Cascadia";
        src: url("https://excalidraw.com/Cascadia.woff2");
      }
    </style>
    
  </defs>
  <g stroke-linecap="round" transform="translate(11.023014613560122 17.500000000000227) rotate(0 232.85714285714295 61.428571428571445)"><path d="M30.71 0 C169.03 0, 307.35 0, 435 0 C455.48 0, 465.71 10.24, 465.71 30.71 C465.71 46.41, 465.71 62.1, 465.71 92.14 C465.71 112.62, 455.48 122.86, 435 122.86 C331.83 122.86, 228.66 122.86, 30.71 122.86 C10.24 122.86, 0 112.62, 0 92.14 C0 67.84, 0 43.53, 0 30.71 C0 10.24, 10.24 0, 30.71 0" stroke="none" stroke-width="0" fill="#1e1e1e"></path><path d="M30.71 0 C183.96 0, 337.21 0, 435 0 M30.71 0 C178.88 0, 327.05 0, 435 0 M435 0 C455.48 0, 465.71 10.24, 465.71 30.71 M435 0 C455.48 0, 465.71 10.24, 465.71 30.71 M465.71 30.71 C465.71 53.6, 465.71 76.49, 465.71 92.14 M465.71 30.71 C465.71 51.2, 465.71 71.68, 465.71 92.14 M465.71 92.14 C465.71 112.62, 455.48 122.86, 435 122.86 M465.71 92.14 C465.71 112.62, 455.48 122.86, 435 122.86 M435 122.86 C285.51 122.86, 136.02 122.86, 30.71 122.86 M435 122.86 C353.82 122.86, 272.63 122.86, 30.71 122.86 M30.71 122.86 C10.24 122.86, 0 112.62, 0 92.14 M30.71 122.86 C10.24 122.86, 0 112.62, 0 92.14 M0 92.14 C0 76.11, 0 60.08, 0 30.71 M0 92.14 C0 75.54, 0 58.94, 0 30.71 M0 30.71 C0 10.24, 10.24 0, 30.71 0 M0 30.71 C0 10.24, 10.24 0, 30.71 0" stroke="#12b886" stroke-width="2" fill="none"></path></g><g transform="translate(112.63015747070301 62.128571428571604) rotate(0 131.25 16.799999999999955)"><text x="131.25" y="0" font-family="Cascadia, Segoe UI Emoji" font-size="28px" fill="#12b886" text-anchor="middle" style="white-space: pre;" direction="ltr" dominant-baseline="text-before-edge">Input Parameters</text></g><g stroke-linecap="round" transform="translate(637.689732142857 20.000000000000227) rotate(0 232.8571428571429 61.428571428571445)"><path d="M30.71 0 C190.17 0, 349.63 0, 435 0 C455.48 0, 465.71 10.24, 465.71 30.71 C465.71 44.04, 465.71 57.36, 465.71 92.14 C465.71 112.62, 455.48 122.86, 435 122.86 C332.65 122.86, 230.3 122.86, 30.71 122.86 C10.24 122.86, 0 112.62, 0 92.14 C0 76.3, 0 60.46, 0 30.71 C0 10.24, 10.24 0, 30.71 0" stroke="none" stroke-width="0" fill="#1e1e1e"></path><path d="M30.71 0 C188.22 0, 345.72 0, 435 0 M30.71 0 C165.55 0, 300.39 0, 435 0 M435 0 C455.48 0, 465.71 10.24, 465.71 30.71 M435 0 C455.48 0, 465.71 10.24, 465.71 30.71 M465.71 30.71 C465.71 52.27, 465.71 73.82, 465.71 92.14 M465.71 30.71 C465.71 49.38, 465.71 68.05, 465.71 92.14 M465.71 92.14 C465.71 112.62, 455.48 122.86, 435 122.86 M465.71 92.14 C465.71 112.62, 455.48 122.86, 435 122.86 M435 122.86 C337.11 122.86, 239.22 122.86, 30.71 122.86 M435 122.86 C302.49 122.86, 169.98 122.86, 30.71 122.86 M30.71 122.86 C10.24 122.86, 0 112.62, 0 92.14 M30.71 122.86 C10.24 122.86, 0 112.62, 0 92.14 M0 92.14 C0 79.14, 0 66.15, 0 30.71 M0 92.14 C0 75.52, 0 58.9, 0 30.71 M0 30.71 C0 10.24, 10.24 0, 30.71 0 M0 30.71 C0 10.24, 10.24 0, 30.71 0" stroke="#12b886" stroke-width="2" fill="none"></path></g><g transform="translate(747.4999999999999 64.6285714285716) rotate(0 123.046875 16.799999999999955)"><text x="123.046875" y="0" font-family="Cascadia, Segoe UI Emoji" font-size="28px" fill="#12b886" text-anchor="middle" style="white-space: pre;" direction="ltr" dominant-baseline="text-before-edge">set_class_names</text></g><g stroke-linecap="round" transform="translate(1263.522862025669 15.83328247070358) rotate(0 232.857142857143 61.428571428571445)"><path d="M30.71 0 C130.29 0, 229.87 0, 435 0 C455.48 0, 465.71 10.24, 465.71 30.71 C465.71 50.85, 465.71 70.98, 465.71 92.14 C465.71 112.62, 455.48 122.86, 435 122.86 C313.38 122.86, 191.75 122.86, 30.71 122.86 C10.24 122.86, 0 112.62, 0 92.14 C0 70.98, 0 49.82, 0 30.71 C0 10.24, 10.24 0, 30.71 0" stroke="none" stroke-width="0" fill="#1e1e1e"></path><path d="M30.71 0 C192.24 0, 353.77 0, 435 0 M30.71 0 C175.77 0, 320.83 0, 435 0 M435 0 C455.48 0, 465.71 10.24, 465.71 30.71 M435 0 C455.48 0, 465.71 10.24, 465.71 30.71 M465.71 30.71 C465.71 46.64, 465.71 62.58, 465.71 92.14 M465.71 30.71 C465.71 48.74, 465.71 66.76, 465.71 92.14 M465.71 92.14 C465.71 112.62, 455.48 122.86, 435 122.86 M465.71 92.14 C465.71 112.62, 455.48 122.86, 435 122.86 M435 122.86 C274.83 122.86, 114.66 122.86, 30.71 122.86 M435 122.86 C278.4 122.86, 121.81 122.86, 30.71 122.86 M30.71 122.86 C10.24 122.86, 0 112.62, 0 92.14 M30.71 122.86 C10.24 122.86, 0 112.62, 0 92.14 M0 92.14 C0 73.49, 0 54.84, 0 30.71 M0 92.14 C0 69.88, 0 47.62, 0 30.71 M0 30.71 C0 10.24, 10.24 0, 30.71 0 M0 30.71 C0 10.24, 10.24 0, 30.71 0" stroke="#12b886" stroke-width="2" fill="none"></path></g><g transform="translate(1340.5206298828116 60.461853899274956) rotate(0 155.859375 16.799999999999955)"><text x="155.859375" y="0" font-family="Cascadia, Segoe UI Emoji" font-size="28px" fill="#12b886" text-anchor="middle" style="white-space: pre;" direction="ltr" dominant-baseline="text-before-edge">create_yaml -&gt; save</text></g><g stroke-linecap="round" transform="translate(1919.3562970842622 10) rotate(0 232.8571428571429 61.428571428571445)"><path d="M30.71 0 C149.88 0, 269.04 0, 435 0 C455.48 0, 465.71 10.24, 465.71 30.71 C465.71 48.07, 465.71 65.43, 465.71 92.14 C465.71 112.62, 455.48 122.86, 435 122.86 C350.19 122.86, 265.38 122.86, 30.71 122.86 C10.24 122.86, 0 112.62, 0 92.14 C0 79.23, 0 66.32, 0 30.71 C0 10.24, 10.24 0, 30.71 0" stroke="none" stroke-width="0" fill="#1e1e1e"></path><path d="M30.71 0 C179.84 0, 328.96 0, 435 0 M30.71 0 C150.07 0, 269.43 0, 435 0 M435 0 C455.48 0, 465.71 10.24, 465.71 30.71 M435 0 C455.48 0, 465.71 10.24, 465.71 30.71 M465.71 30.71 C465.71 50.16, 465.71 69.6, 465.71 92.14 M465.71 30.71 C465.71 47.83, 465.71 64.95, 465.71 92.14 M465.71 92.14 C465.71 112.62, 455.48 122.86, 435 122.86 M465.71 92.14 C465.71 112.62, 455.48 122.86, 435 122.86 M435 122.86 C344.04 122.86, 253.09 122.86, 30.71 122.86 M435 122.86 C294.75 122.86, 154.5 122.86, 30.71 122.86 M30.71 122.86 C10.24 122.86, 0 112.62, 0 92.14 M30.71 122.86 C10.24 122.86, 0 112.62, 0 92.14 M0 92.14 C0 74.08, 0 56.01, 0 30.71 M0 92.14 C0 78.89, 0 65.65, 0 30.71 M0 30.71 C0 10.24, 10.24 0, 30.71 0 M0 30.71 C0 10.24, 10.24 0, 30.71 0" stroke="#12b886" stroke-width="2" fill="none"></path></g><g transform="translate(2061.9790649414053 54.62857142857138) rotate(0 90.234375 16.799999999999955)"><text x="90.234375" y="0" font-family="Cascadia, Segoe UI Emoji" font-size="28px" fill="#12b886" text-anchor="middle" style="white-space: pre;" direction="ltr" dominant-baseline="text-before-edge">Output File</text></g><g stroke-linecap="round"><g transform="translate(483.880157470703 86.42857142857156) rotate(0 69.11455510059119 -0.8049842404993797)"><path d="M0.01 -0.12 C23.06 -0.4, 115.35 -1.48, 138.39 -1.76 M-0.17 0.15 C22.86 -0.12, 115.25 -1.31, 138.31 -1.62" stroke="#2f9e44" stroke-width="2" fill="none"></path></g><g transform="translate(483.880157470703 86.42857142857156) rotate(0 69.11455510059119 -0.8049842404993797)"><path d="M110.25 9.01 C120.51 5.16, 131.03 1.01, 138.31 -1.62 M110.25 9.01 C116.29 6.89, 122.21 4.58, 138.31 -1.62" stroke="#2f9e44" stroke-width="2" fill="none"></path></g><g transform="translate(483.880157470703 86.42857142857156) rotate(0 69.11455510059119 -0.8049842404993797)"><path d="M109.99 -11.51 C120.33 -7.7, 130.95 -4.19, 138.31 -1.62 M109.99 -11.51 C116.06 -9.22, 122.05 -7.13, 138.31 -1.62" stroke="#2f9e44" stroke-width="2" fill="none"></path></g></g><mask></mask><g stroke-linecap="round"><g transform="translate(1120.5468749999995 94.76200648716531) rotate(0 59.19708714319245 -2.5350490569311432)"><path d="M0.11 -0.02 C19.86 -0.85, 98.72 -4.04, 118.42 -4.85 M-0.03 -0.17 C19.71 -1.04, 98.64 -4.22, 118.34 -5.05" stroke="#2f9e44" stroke-width="2" fill="none"></path></g><g transform="translate(1120.5468749999995 94.76200648716531) rotate(0 59.19708714319245 -2.5350490569311432)"><path d="M90.6 6.36 C97.66 3.57, 105.12 0.38, 118.34 -5.05 M90.6 6.36 C100.75 2.24, 111.1 -2.08, 118.34 -5.05" stroke="#2f9e44" stroke-width="2" fill="none"></path></g><g transform="translate(1120.5468749999995 94.76200648716531) rotate(0 59.19708714319245 -2.5350490569311432)"><path d="M89.75 -14.14 C97.06 -11.67, 104.73 -9.6, 118.34 -5.05 M89.75 -14.14 C100.24 -10.69, 110.9 -7.44, 118.34 -5.05" stroke="#2f9e44" stroke-width="2" fill="none"></path></g></g><mask></mask><g stroke-linecap="round"><g transform="translate(1735.546874999999 88.09528895786843) rotate(0 81.64177540823039 -0.8709099593329483)"><path d="M-0.14 -0.04 C27.11 -0.32, 136.19 -1.43, 163.42 -1.7 M0.07 -0.19 C27.31 -0.45, 136.1 -1.31, 163.34 -1.53" stroke="#2f9e44" stroke-width="2" fill="none"></path></g><g transform="translate(1735.546874999999 88.09528895786843) rotate(0 81.64177540823039 -0.8709099593329483)"><path d="M135.24 8.96 C142.18 6.54, 149.22 3.53, 163.34 -1.53 M135.24 8.96 C144.06 5.72, 152.67 2.46, 163.34 -1.53" stroke="#2f9e44" stroke-width="2" fill="none"></path></g><g transform="translate(1735.546874999999 88.09528895786843) rotate(0 81.64177540823039 -0.8709099593329483)"><path d="M135.07 -11.56 C142.05 -8.85, 149.13 -6.74, 163.34 -1.53 M135.07 -11.56 C143.92 -8.39, 152.59 -5.24, 163.34 -1.53" stroke="#2f9e44" stroke-width="2" fill="none"></path></g></g><mask></mask><g transform="translate(10 152.96185389927473) rotate(0 229.6875 33.60000000000002)"><text x="229.6875" y="0" font-family="Cascadia, Segoe UI Emoji" font-size="28px" fill="#f08c00" text-anchor="middle" style="white-space: pre;" direction="ltr" dominant-baseline="text-before-edge">(train_path, valid_path,nc, </text><text x="229.6875" y="33.6" font-family="Cascadia, Segoe UI Emoji" font-size="28px" fill="#f08c00" text-anchor="middle" style="white-space: pre;" direction="ltr" dominant-baseline="text-before-edge">*class_names)</text></g><g transform="translate(684.1665649414064 156.29528895786848) rotate(0 180.46875 16.799999999999955)"><text x="0" y="0" font-family="Cascadia, Segoe UI Emoji" font-size="28px" fill="#f08c00" text-anchor="start" style="white-space: pre;" direction="ltr" dominant-baseline="text-before-edge">Validate and Set Names</text></g><g transform="translate(1349.1665649414058 156.29528895786848) rotate(0 147.6562499999999 16.799999999999955)"><text x="0" y="0" font-family="Cascadia, Segoe UI Emoji" font-size="28px" fill="#f08c00" text-anchor="start" style="white-space: pre;" direction="ltr" dominant-baseline="text-before-edge">Write YAML Content</text></g><g transform="translate(2051.2237548828116 144.62857142857183) rotate(0 98.4375 16.799999999999955)"><text x="0" y="0" font-family="Cascadia, Segoe UI Emoji" font-size="28px" fill="#f08c00" text-anchor="start" style="white-space: pre;" direction="ltr" dominant-baseline="text-before-edge">dataset.yaml</text></g></svg>