<svg version="1.1" xmlns="http://www.w3.org/2000/svg" viewBox="0 0 2420.714285714287 707.8571428571427" width="2420.714285714287" height="707.8571428571427" filter="invert(93%) hue-rotate(180deg)">
  <!-- svg-source:excalidraw -->
  
  <defs>
    <style class="style-fonts">
      @font-face {
        font-family: "Virgil";
        src: url("https://excalidraw.com/Virgil.woff2");
      }
      @font-face {
        font-family: "Cascadia";
        src: url("https://excalidraw.com/Cascadia.woff2");
      }
    </style>
    
  </defs>
  <g stroke-linecap="round" transform="translate(1024.2857142857147 48.57142857142844) rotate(0 232.8571428571429 61.42857142857139)"><path d="M30.71 0 C181.33 0, 331.94 0, 435 0 C455.48 0, 465.71 10.24, 465.71 30.71 C465.71 54.95, 465.71 79.19, 465.71 92.14 C465.71 112.62, 455.48 122.86, 435 122.86 C335.95 122.86, 236.91 122.86, 30.71 122.86 C10.24 122.86, 0 112.62, 0 92.14 C0 79.33, 0 66.51, 0 30.71 C0 10.24, 10.24 0, 30.71 0" stroke="none" stroke-width="0" fill="#1e1e1e"></path><path d="M30.71 0 C145.42 0, 260.13 0, 435 0 M30.71 0 C145.7 0, 260.69 0, 435 0 M435 0 C455.48 0, 465.71 10.24, 465.71 30.71 M435 0 C455.48 0, 465.71 10.24, 465.71 30.71 M465.71 30.71 C465.71 46.65, 465.71 62.59, 465.71 92.14 M465.71 30.71 C465.71 48.9, 465.71 67.08, 465.71 92.14 M465.71 92.14 C465.71 112.62, 455.48 122.86, 435 122.86 M465.71 92.14 C465.71 112.62, 455.48 122.86, 435 122.86 M435 122.86 C286.94 122.86, 138.88 122.86, 30.71 122.86 M435 122.86 C298.61 122.86, 162.21 122.86, 30.71 122.86 M30.71 122.86 C10.24 122.86, 0 112.62, 0 92.14 M30.71 122.86 C10.24 122.86, 0 112.62, 0 92.14 M0 92.14 C0 68.51, 0 44.87, 0 30.71 M0 92.14 C0 74.63, 0 57.11, 0 30.71 M0 30.71 C0 10.24, 10.24 0, 30.71 0 M0 30.71 C0 10.24, 10.24 0, 30.71 0" stroke="#12b886" stroke-width="2" fill="none"></path></g><g transform="translate(1166.9084821428578 93.19999999999982) rotate(0 90.234375 16.80000000000001)"><text x="90.234375" y="0" font-family="Cascadia, Segoe UI Emoji" font-size="28px" fill="#12b886" text-anchor="middle" style="white-space: pre;" direction="ltr" dominant-baseline="text-before-edge">Input Files</text></g><g transform="translate(1154.2857142857147 10) rotate(0 123.046875 16.80000000000001)"><text x="0" y="0" font-family="Cascadia, Segoe UI Emoji" font-size="28px" fill="#f08c00" text-anchor="start" style="white-space: pre;" direction="ltr" dominant-baseline="text-before-edge">Images &amp; Labels</text></g><g stroke-linecap="round" transform="translate(331.42857142857235 339.9999999999998) rotate(0 232.8571428571429 61.42857142857139)"><path d="M30.71 0 C126.65 0, 222.59 0, 435 0 C455.48 0, 465.71 10.24, 465.71 30.71 C465.71 46.29, 465.71 61.86, 465.71 92.14 C465.71 112.62, 455.48 122.86, 435 122.86 C346.4 122.86, 257.8 122.86, 30.71 122.86 C10.24 122.86, 0 112.62, 0 92.14 C0 74.7, 0 57.26, 0 30.71 C0 10.24, 10.24 0, 30.71 0" stroke="none" stroke-width="0" fill="#1e1e1e"></path><path d="M30.71 0 C146.83 0, 262.94 0, 435 0 M30.71 0 C113.56 0, 196.4 0, 435 0 M435 0 C455.48 0, 465.71 10.24, 465.71 30.71 M435 0 C455.48 0, 465.71 10.24, 465.71 30.71 M465.71 30.71 C465.71 48.79, 465.71 66.87, 465.71 92.14 M465.71 30.71 C465.71 53.26, 465.71 75.8, 465.71 92.14 M465.71 92.14 C465.71 112.62, 455.48 122.86, 435 122.86 M465.71 92.14 C465.71 112.62, 455.48 122.86, 435 122.86 M435 122.86 C277.16 122.86, 119.32 122.86, 30.71 122.86 M435 122.86 C293.5 122.86, 152.01 122.86, 30.71 122.86 M30.71 122.86 C10.24 122.86, 0 112.62, 0 92.14 M30.71 122.86 C10.24 122.86, 0 112.62, 0 92.14 M0 92.14 C0 77.84, 0 63.54, 0 30.71 M0 92.14 C0 67.98, 0 43.82, 0 30.71 M0 30.71 C0 10.24, 10.24 0, 30.71 0 M0 30.71 C0 10.24, 10.24 0, 30.71 0" stroke="#12b886" stroke-width="2" fill="none"></path></g><g transform="translate(523.2700892857152 384.62857142857115) rotate(0 41.015625 16.80000000000001)"><text x="41.015625" y="0" font-family="Cascadia, Segoe UI Emoji" font-size="28px" fill="#12b886" text-anchor="middle" style="white-space: pre;" direction="ltr" dominant-baseline="text-before-edge">Train</text></g><g stroke-linecap="round" transform="translate(1684.2857142857142 328.57142857142856) rotate(0 232.8571428571429 61.42857142857139)"><path d="M30.71 0 C144.29 0, 257.86 0, 435 0 C455.48 0, 465.71 10.24, 465.71 30.71 C465.71 48.09, 465.71 65.46, 465.71 92.14 C465.71 112.62, 455.48 122.86, 435 122.86 C308.33 122.86, 181.67 122.86, 30.71 122.86 C10.24 122.86, 0 112.62, 0 92.14 C0 75.82, 0 59.51, 0 30.71 C0 10.24, 10.24 0, 30.71 0" stroke="none" stroke-width="0" fill="#1e1e1e"></path><path d="M30.71 0 C122.1 0, 213.49 0, 435 0 M30.71 0 C181.32 0, 331.93 0, 435 0 M435 0 C455.48 0, 465.71 10.24, 465.71 30.71 M435 0 C455.48 0, 465.71 10.24, 465.71 30.71 M465.71 30.71 C465.71 48.47, 465.71 66.23, 465.71 92.14 M465.71 30.71 C465.71 46, 465.71 61.28, 465.71 92.14 M465.71 92.14 C465.71 112.62, 455.48 122.86, 435 122.86 M465.71 92.14 C465.71 112.62, 455.48 122.86, 435 122.86 M435 122.86 C311.72 122.86, 188.43 122.86, 30.71 122.86 M435 122.86 C333.08 122.86, 231.17 122.86, 30.71 122.86 M30.71 122.86 C10.24 122.86, 0 112.62, 0 92.14 M30.71 122.86 C10.24 122.86, 0 112.62, 0 92.14 M0 92.14 C0 79.48, 0 66.81, 0 30.71 M0 92.14 C0 69.6, 0 47.06, 0 30.71 M0 30.71 C0 10.24, 10.24 0, 30.71 0 M0 30.71 C0 10.24, 10.24 0, 30.71 0" stroke="#12b886" stroke-width="2" fill="none"></path></g><g transform="translate(1835.1116071428573 373.19999999999993) rotate(0 82.03125 16.80000000000001)"><text x="82.03125" y="0" font-family="Cascadia, Segoe UI Emoji" font-size="28px" fill="#12b886" text-anchor="middle" style="white-space: pre;" direction="ltr" dominant-baseline="text-before-edge">Validation</text></g><g stroke-linecap="round" transform="translate(10 565.7142857142854) rotate(0 232.85714285714295 61.42857142857139)"><path d="M30.71 0 C166.41 0, 302.11 0, 435 0 C455.48 0, 465.71 10.24, 465.71 30.71 C465.71 47.67, 465.71 64.62, 465.71 92.14 C465.71 112.62, 455.48 122.86, 435 122.86 C330.81 122.86, 226.62 122.86, 30.71 122.86 C10.24 122.86, 0 112.62, 0 92.14 C0 75.32, 0 58.5, 0 30.71 C0 10.24, 10.24 0, 30.71 0" stroke="none" stroke-width="0" fill="#1e1e1e"></path><path d="M30.71 0 C114.66 0, 198.6 0, 435 0 M30.71 0 C173.84 0, 316.96 0, 435 0 M435 0 C455.48 0, 465.71 10.24, 465.71 30.71 M435 0 C455.48 0, 465.71 10.24, 465.71 30.71 M465.71 30.71 C465.71 51.66, 465.71 72.61, 465.71 92.14 M465.71 30.71 C465.71 52.05, 465.71 73.38, 465.71 92.14 M465.71 92.14 C465.71 112.62, 455.48 122.86, 435 122.86 M465.71 92.14 C465.71 112.62, 455.48 122.86, 435 122.86 M435 122.86 C310.57 122.86, 186.14 122.86, 30.71 122.86 M435 122.86 C331.18 122.86, 227.36 122.86, 30.71 122.86 M30.71 122.86 C10.24 122.86, 0 112.62, 0 92.14 M30.71 122.86 C10.24 122.86, 0 112.62, 0 92.14 M0 92.14 C0 74.07, 0 56, 0 30.71 M0 92.14 C0 79.62, 0 67.1, 0 30.71 M0 30.71 C0 10.24, 10.24 0, 30.71 0 M0 30.71 C0 10.24, 10.24 0, 30.71 0" stroke="#12b886" stroke-width="2" fill="none"></path></g><g transform="translate(193.6383928571429 610.3428571428568) rotate(0 49.21875 16.80000000000001)"><text x="49.21875" y="0" font-family="Cascadia, Segoe UI Emoji" font-size="28px" fill="#12b886" text-anchor="middle" style="white-space: pre;" direction="ltr" dominant-baseline="text-before-edge">Images</text></g><g stroke-linecap="round" transform="translate(597.1428571428577 572.8571428571425) rotate(0 232.8571428571429 61.42857142857139)"><path d="M30.71 0 C184.81 0, 338.91 0, 435 0 C455.48 0, 465.71 10.24, 465.71 30.71 C465.71 43.93, 465.71 57.15, 465.71 92.14 C465.71 112.62, 455.48 122.86, 435 122.86 C303.55 122.86, 172.1 122.86, 30.71 122.86 C10.24 122.86, 0 112.62, 0 92.14 C0 79.52, 0 66.9, 0 30.71 C0 10.24, 10.24 0, 30.71 0" stroke="none" stroke-width="0" fill="#1e1e1e"></path><path d="M30.71 0 C135.06 0, 239.4 0, 435 0 M30.71 0 C176.59 0, 322.47 0, 435 0 M435 0 C455.48 0, 465.71 10.24, 465.71 30.71 M435 0 C455.48 0, 465.71 10.24, 465.71 30.71 M465.71 30.71 C465.71 45.25, 465.71 59.79, 465.71 92.14 M465.71 30.71 C465.71 52.06, 465.71 73.4, 465.71 92.14 M465.71 92.14 C465.71 112.62, 455.48 122.86, 435 122.86 M465.71 92.14 C465.71 112.62, 455.48 122.86, 435 122.86 M435 122.86 C279.75 122.86, 124.49 122.86, 30.71 122.86 M435 122.86 C331.39 122.86, 227.79 122.86, 30.71 122.86 M30.71 122.86 C10.24 122.86, 0 112.62, 0 92.14 M30.71 122.86 C10.24 122.86, 0 112.62, 0 92.14 M0 92.14 C0 78.6, 0 65.05, 0 30.71 M0 92.14 C0 71.07, 0 50, 0 30.71 M0 30.71 C0 10.24, 10.24 0, 30.71 0 M0 30.71 C0 10.24, 10.24 0, 30.71 0" stroke="#12b886" stroke-width="2" fill="none"></path></g><g transform="translate(780.7812500000006 617.4857142857139) rotate(0 49.21875 16.80000000000001)"><text x="49.21875" y="0" font-family="Cascadia, Segoe UI Emoji" font-size="28px" fill="#12b886" text-anchor="middle" style="white-space: pre;" direction="ltr" dominant-baseline="text-before-edge">Labels</text></g><g stroke-linecap="round" transform="translate(1357.8571428571431 567.857142857143) rotate(0 232.857142857143 61.42857142857139)"><path d="M30.71 0 C191.22 0, 351.73 0, 435 0 C455.48 0, 465.71 10.24, 465.71 30.71 C465.71 50.44, 465.71 70.16, 465.71 92.14 C465.71 112.62, 455.48 122.86, 435 122.86 C347.73 122.86, 260.46 122.86, 30.71 122.86 C10.24 122.86, 0 112.62, 0 92.14 C0 78.33, 0 64.52, 0 30.71 C0 10.24, 10.24 0, 30.71 0" stroke="none" stroke-width="0" fill="#1e1e1e"></path><path d="M30.71 0 C176.91 0, 323.11 0, 435 0 M30.71 0 C162.5 0, 294.28 0, 435 0 M435 0 C455.48 0, 465.71 10.24, 465.71 30.71 M435 0 C455.48 0, 465.71 10.24, 465.71 30.71 M465.71 30.71 C465.71 51.84, 465.71 72.96, 465.71 92.14 M465.71 30.71 C465.71 44.12, 465.71 57.52, 465.71 92.14 M465.71 92.14 C465.71 112.62, 455.48 122.86, 435 122.86 M465.71 92.14 C465.71 112.62, 455.48 122.86, 435 122.86 M435 122.86 C316.6 122.86, 198.2 122.86, 30.71 122.86 M435 122.86 C349.76 122.86, 264.51 122.86, 30.71 122.86 M30.71 122.86 C10.24 122.86, 0 112.62, 0 92.14 M30.71 122.86 C10.24 122.86, 0 112.62, 0 92.14 M0 92.14 C0 69.53, 0 46.92, 0 30.71 M0 92.14 C0 71.85, 0 51.57, 0 30.71 M0 30.71 C0 10.24, 10.24 0, 30.71 0 M0 30.71 C0 10.24, 10.24 0, 30.71 0" stroke="#12b886" stroke-width="2" fill="none"></path></g><g transform="translate(1541.4955357142862 612.4857142857145) rotate(0 49.21875 16.80000000000001)"><text x="49.21875" y="0" font-family="Cascadia, Segoe UI Emoji" font-size="28px" fill="#12b886" text-anchor="middle" style="white-space: pre;" direction="ltr" dominant-baseline="text-before-edge">Images</text></g><g stroke-linecap="round" transform="translate(1945.0000000000014 574.9999999999999) rotate(0 232.8571428571429 61.42857142857139)"><path d="M30.71 0 C164.8 0, 298.88 0, 435 0 C455.48 0, 465.71 10.24, 465.71 30.71 C465.71 54.4, 465.71 78.08, 465.71 92.14 C465.71 112.62, 455.48 122.86, 435 122.86 C347.75 122.86, 260.49 122.86, 30.71 122.86 C10.24 122.86, 0 112.62, 0 92.14 C0 76.61, 0 61.08, 0 30.71 C0 10.24, 10.24 0, 30.71 0" stroke="none" stroke-width="0" fill="#1e1e1e"></path><path d="M30.71 0 C154.5 0, 278.29 0, 435 0 M30.71 0 C185.96 0, 341.21 0, 435 0 M435 0 C455.48 0, 465.71 10.24, 465.71 30.71 M435 0 C455.48 0, 465.71 10.24, 465.71 30.71 M465.71 30.71 C465.71 49.81, 465.71 68.9, 465.71 92.14 M465.71 30.71 C465.71 48.91, 465.71 67.1, 465.71 92.14 M465.71 92.14 C465.71 112.62, 455.48 122.86, 435 122.86 M465.71 92.14 C465.71 112.62, 455.48 122.86, 435 122.86 M435 122.86 C283.13 122.86, 131.27 122.86, 30.71 122.86 M435 122.86 C347.87 122.86, 260.74 122.86, 30.71 122.86 M30.71 122.86 C10.24 122.86, 0 112.62, 0 92.14 M30.71 122.86 C10.24 122.86, 0 112.62, 0 92.14 M0 92.14 C0 79.29, 0 66.45, 0 30.71 M0 92.14 C0 74.65, 0 57.15, 0 30.71 M0 30.71 C0 10.24, 10.24 0, 30.71 0 M0 30.71 C0 10.24, 10.24 0, 30.71 0" stroke="#12b886" stroke-width="2" fill="none"></path></g><g transform="translate(2128.638392857144 619.6285714285714) rotate(0 49.21875 16.80000000000001)"><text x="49.21875" y="0" font-family="Cascadia, Segoe UI Emoji" font-size="28px" fill="#12b886" text-anchor="middle" style="white-space: pre;" direction="ltr" dominant-baseline="text-before-edge">Labels</text></g><g stroke-linecap="round"><g transform="translate(1127.1428571428578 190) rotate(0 -202.36143570301772 66.34046922187724)"><path d="M0.05 1.13 C-53.12 9.89, -252.07 30.86, -319.51 52.67 C-386.95 74.48, -390.2 118.72, -404.59 132 M-1.39 0.68 C-54.63 9.61, -252.97 32.56, -320.2 54.1 C-387.43 75.65, -390.52 117.26, -404.77 129.96" stroke="#2f9e44" stroke-width="2" fill="none"></path></g><g transform="translate(1127.1428571428578 190) rotate(0 -202.36143570301772 66.34046922187724)"><path d="M-397.78 100.78 C-397.66 109.14, -401.67 117.74, -404.77 129.96 M-397.78 100.78 C-401.03 111.61, -403.31 121.98, -404.77 129.96" stroke="#2f9e44" stroke-width="2" fill="none"></path></g><g transform="translate(1127.1428571428578 190) rotate(0 -202.36143570301772 66.34046922187724)"><path d="M-380.66 112.1 C-384.98 117.54, -393.42 123.21, -404.77 129.96 M-380.66 112.1 C-389.85 119.12, -398.07 125.57, -404.77 129.96" stroke="#2f9e44" stroke-width="2" fill="none"></path></g></g><mask></mask><g stroke-linecap="round"><g transform="translate(1335.7142857142862 184.28571428571445) rotate(0 167.97779921604035 70.14966071598218)"><path d="M-0.99 0.72 C35.04 10.34, 159.93 33.73, 215.86 56.83 C271.8 79.92, 314.72 125.42, 334.62 139.3 M0.69 0.05 C36.61 9.92, 158.95 34.83, 215 58.2 C271.04 81.56, 316.9 126.4, 336.95 140.24" stroke="#2f9e44" stroke-width="2" fill="none"></path></g><g transform="translate(1335.7142857142862 184.28571428571445) rotate(0 167.97779921604035 70.14966071598218)"><path d="M308.46 130.83 C317.33 133.87, 323.34 134.36, 336.95 140.24 M308.46 130.83 C314.39 133.81, 322.42 135.94, 336.95 140.24" stroke="#2f9e44" stroke-width="2" fill="none"></path></g><g transform="translate(1335.7142857142862 184.28571428571445) rotate(0 167.97779921604035 70.14966071598218)"><path d="M321.18 114.72 C326.48 122.04, 329.03 126.9, 336.95 140.24 M321.18 114.72 C323.98 121.6, 328.94 127.63, 336.95 140.24" stroke="#2f9e44" stroke-width="2" fill="none"></path></g></g><mask></mask><g stroke-linecap="round"><g transform="translate(500.0000000000008 481.42857142857156) rotate(0 -71.9763613817309 34.73031817749143)"><path d="M-0.11 -0.29 C-17.42 4.73, -79.58 19.18, -103.48 31.06 C-127.38 42.93, -136.74 64.38, -143.49 70.95 M-1.63 -1.49 C-18.57 3.61, -77.39 20.63, -101.09 32.4 C-124.8 44.16, -136.75 62.54, -143.84 69.1" stroke="#2f9e44" stroke-width="2" fill="none"></path></g><g transform="translate(500.0000000000008 481.42857142857156) rotate(0 -71.9763613817309 34.73031817749143)"><path d="M-133.01 42.95 C-136.84 50.5, -140.54 61.46, -143.84 69.1 M-133.01 42.95 C-137.24 53.6, -140.54 62.48, -143.84 69.1" stroke="#2f9e44" stroke-width="2" fill="none"></path></g><g transform="translate(500.0000000000008 481.42857142857156) rotate(0 -71.9763613817309 34.73031817749143)"><path d="M-118.74 56.03 C-127.36 59.27, -135.75 65.93, -143.84 69.1 M-118.74 56.03 C-128.41 61.78, -137.12 65.7, -143.84 69.1" stroke="#2f9e44" stroke-width="2" fill="none"></path></g></g><mask></mask><g stroke-linecap="round"><g transform="translate(628.5714285714292 485.7142857142858) rotate(0 22.762779966051653 33.444687451266816)"><path d="M0.16 0 C4.67 3.28, 19.37 8.43, 26.98 19.58 C34.59 30.73, 42.71 58.98, 45.82 66.91 M-0.3 -0.38 C4.14 2.95, 18.89 8.66, 26.54 19.93 C34.19 31.21, 42.4 59.34, 45.6 67.27" stroke="#2f9e44" stroke-width="2" fill="none"></path></g><g transform="translate(628.5714285714292 485.7142857142858) rotate(0 22.762779966051653 33.444687451266816)"><path d="M29.52 47.69 C34.08 52.92, 37.87 59, 45.6 67.27 M29.52 47.69 C33.87 52.22, 37.22 57.67, 45.6 67.27" stroke="#2f9e44" stroke-width="2" fill="none"></path></g><g transform="translate(628.5714285714292 485.7142857142858) rotate(0 22.762779966051653 33.444687451266816)"><path d="M45.87 41.94 C45.77 48.83, 44.92 56.54, 45.6 67.27 M45.87 41.94 C46.18 47.88, 45.49 54.76, 45.6 67.27" stroke="#2f9e44" stroke-width="2" fill="none"></path></g></g><mask></mask><g stroke-linecap="round"><g transform="translate(1815.7142857142862 467.1428571428571) rotate(0 -60.08851165342685 42.3311202935995)"><path d="M0.03 -0.96 C-14.78 4.66, -69.65 20.35, -89.51 34.56 C-109.37 48.77, -114.13 76.07, -119.14 84.3 M-1.42 1.15 C-15.8 6.8, -67.49 21.41, -87.29 35.49 C-107.09 49.57, -114.77 77.4, -120.2 85.62" stroke="#2f9e44" stroke-width="2" fill="none"></path></g><g transform="translate(1815.7142857142862 467.1428571428571) rotate(0 -60.08851165342685 42.3311202935995)"><path d="M-117.2 57.24 C-119.35 62.64, -120.41 70.23, -120.2 85.62 M-117.2 57.24 C-117.53 64.91, -119.73 73.91, -120.2 85.62" stroke="#2f9e44" stroke-width="2" fill="none"></path></g><g transform="translate(1815.7142857142862 467.1428571428571) rotate(0 -60.08851165342685 42.3311202935995)"><path d="M-99.66 65.81 C-106.17 69.12, -111.54 74.6, -120.2 85.62 M-99.66 65.81 C-105.2 70.85, -112.68 77.26, -120.2 85.62" stroke="#2f9e44" stroke-width="2" fill="none"></path></g></g><mask></mask><g stroke-linecap="round"><g transform="translate(1968.5714285714294 465.7142857142858) rotate(0 26.030832197996006 48.2079872272177)"><path d="M-0.37 -0.66 C5.63 7.98, 27.85 36.64, 36.65 52.79 C45.45 68.94, 50.13 88.73, 52.43 96.24 M1.64 1.6 C7.37 10.37, 27.02 38.38, 35.45 54.29 C43.87 70.21, 49.73 90.18, 52.19 97.08" stroke="#2f9e44" stroke-width="2" fill="none"></path></g><g transform="translate(1968.5714285714294 465.7142857142858) rotate(0 26.030832197996006 48.2079872272177)"><path d="M37.69 78.88 C41.91 84.62, 48.09 93.61, 52.19 97.08 M37.69 78.88 C41.31 82.09, 44.37 85.98, 52.19 97.08" stroke="#2f9e44" stroke-width="2" fill="none"></path></g><g transform="translate(1968.5714285714294 465.7142857142858) rotate(0 26.030832197996006 48.2079872272177)"><path d="M52.78 73.82 C51.64 81.32, 52.43 92.13, 52.19 97.08 M52.78 73.82 C52.97 78.26, 52.64 83.28, 52.19 97.08" stroke="#2f9e44" stroke-width="2" fill="none"></path></g></g><mask></mask></svg>