<svg version="1.1" xmlns="http://www.w3.org/2000/svg" viewBox="0 0 3438.571428571429 743.9428571428571" width="3438.571428571429" height="743.9428571428571" filter="invert(93%) hue-rotate(180deg)">
  <!-- svg-source:excalidraw -->
  
  <defs>
    <style class="style-fonts">
      @font-face {
        font-family: "Virgil";
        src: url("https://excalidraw.com/Virgil.woff2");
      }
      @font-face {
        font-family: "Cascadia";
        src: url("https://excalidraw.com/Cascadia.woff2");
      }
    </style>
    
  </defs>
  <g stroke-linecap="round" transform="translate(10 45.71428571428589) rotate(0 232.85714285714295 61.4285714285714)"><path d="M30.71 0 C181.33 0, 331.94 0, 435 0 C455.48 0, 465.71 10.24, 465.71 30.71 C465.71 54.95, 465.71 79.19, 465.71 92.14 C465.71 112.62, 455.48 122.86, 435 122.86 C335.95 122.86, 236.91 122.86, 30.71 122.86 C10.24 122.86, 0 112.62, 0 92.14 C0 79.33, 0 66.51, 0 30.71 C0 10.24, 10.24 0, 30.71 0" stroke="none" stroke-width="0" fill="#1e1e1e"></path><path d="M30.71 0 C145.42 0, 260.13 0, 435 0 M30.71 0 C145.7 0, 260.69 0, 435 0 M435 0 C455.48 0, 465.71 10.24, 465.71 30.71 M435 0 C455.48 0, 465.71 10.24, 465.71 30.71 M465.71 30.71 C465.71 46.65, 465.71 62.59, 465.71 92.14 M465.71 30.71 C465.71 48.9, 465.71 67.08, 465.71 92.14 M465.71 92.14 C465.71 112.62, 455.48 122.86, 435 122.86 M465.71 92.14 C465.71 112.62, 455.48 122.86, 435 122.86 M435 122.86 C286.94 122.86, 138.88 122.86, 30.71 122.86 M435 122.86 C298.61 122.86, 162.21 122.86, 30.71 122.86 M30.71 122.86 C10.24 122.86, 0 112.62, 0 92.14 M30.71 122.86 C10.24 122.86, 0 112.62, 0 92.14 M0 92.14 C0 68.51, 0 44.87, 0 30.71 M0 92.14 C0 74.63, 0 57.11, 0 30.71 M0 30.71 C0 10.24, 10.24 0, 30.71 0 M0 30.71 C0 10.24, 10.24 0, 30.71 0" stroke="#12b886" stroke-width="2" fill="none"></path></g><g transform="translate(136.216517857143 90.34285714285727) rotate(0 106.640625 16.799999999999997)"><text x="106.640625" y="0" font-family="Cascadia, Segoe UI Emoji" font-size="28px" fill="#12b886" text-anchor="middle" style="white-space: pre;" direction="ltr" dominant-baseline="text-before-edge">NIFTI File(s)</text></g><g stroke-linecap="round" transform="translate(795.7142857142863 50.00000000000023) rotate(0 232.857142857143 61.4285714285714)"><path d="M30.71 0 C176.76 0, 322.8 0, 435 0 C455.48 0, 465.71 10.24, 465.71 30.71 C465.71 53.06, 465.71 75.4, 465.71 92.14 C465.71 112.62, 455.48 122.86, 435 122.86 C336.59 122.86, 238.19 122.86, 30.71 122.86 C10.24 122.86, 0 112.62, 0 92.14 C0 76.99, 0 61.85, 0 30.71 C0 10.24, 10.24 0, 30.71 0" stroke="none" stroke-width="0" fill="#1e1e1e"></path><path d="M30.71 0 C184.11 0, 337.5 0, 435 0 M30.71 0 C173.76 0, 316.8 0, 435 0 M435 0 C455.48 0, 465.71 10.24, 465.71 30.71 M435 0 C455.48 0, 465.71 10.24, 465.71 30.71 M465.71 30.71 C465.71 45.05, 465.71 59.4, 465.71 92.14 M465.71 30.71 C465.71 50.24, 465.71 69.76, 465.71 92.14 M465.71 92.14 C465.71 112.62, 455.48 122.86, 435 122.86 M465.71 92.14 C465.71 112.62, 455.48 122.86, 435 122.86 M435 122.86 C304.72 122.86, 174.44 122.86, 30.71 122.86 M435 122.86 C320.94 122.86, 206.88 122.86, 30.71 122.86 M30.71 122.86 C10.24 122.86, 0 112.62, 0 92.14 M30.71 122.86 C10.24 122.86, 0 112.62, 0 92.14 M0 92.14 C0 77.91, 0 63.69, 0 30.71 M0 92.14 C0 78.97, 0 65.8, 0 30.71 M0 30.71 C0 10.24, 10.24 0, 30.71 0 M0 30.71 C0 10.24, 10.24 0, 30.71 0" stroke="#12b886" stroke-width="2" fill="none"></path></g><g transform="translate(1003.9620535714292 94.62857142857163) rotate(0 24.609375 16.799999999999997)"><text x="24.609375" y="0" font-family="Cascadia, Segoe UI Emoji" font-size="28px" fill="#12b886" text-anchor="middle" style="white-space: pre;" direction="ltr" dominant-baseline="text-before-edge">Run</text></g><g stroke-linecap="round" transform="translate(2962.8571428571427 90.00000000000023) rotate(0 232.85714285714312 61.4285714285714)"><path d="M30.71 0 C126.95 0, 223.19 0, 435 0 C455.48 0, 465.71 10.24, 465.71 30.71 C465.71 48.12, 465.71 65.52, 465.71 92.14 C465.71 112.62, 455.48 122.86, 435 122.86 C294.33 122.86, 153.67 122.86, 30.71 122.86 C10.24 122.86, 0 112.62, 0 92.14 C0 75.77, 0 59.39, 0 30.71 C0 10.24, 10.24 0, 30.71 0" stroke="none" stroke-width="0" fill="#1e1e1e"></path><path d="M30.71 0 C176.37 0, 322.03 0, 435 0 M30.71 0 C134.84 0, 238.97 0, 435 0 M435 0 C455.48 0, 465.71 10.24, 465.71 30.71 M435 0 C455.48 0, 465.71 10.24, 465.71 30.71 M465.71 30.71 C465.71 49.19, 465.71 67.66, 465.71 92.14 M465.71 30.71 C465.71 52.38, 465.71 74.04, 465.71 92.14 M465.71 92.14 C465.71 112.62, 455.48 122.86, 435 122.86 M465.71 92.14 C465.71 112.62, 455.48 122.86, 435 122.86 M435 122.86 C345.95 122.86, 256.9 122.86, 30.71 122.86 M435 122.86 C303.25 122.86, 171.51 122.86, 30.71 122.86 M30.71 122.86 C10.24 122.86, 0 112.62, 0 92.14 M30.71 122.86 C10.24 122.86, 0 112.62, 0 92.14 M0 92.14 C0 74.82, 0 57.49, 0 30.71 M0 92.14 C0 71.85, 0 51.56, 0 30.71 M0 30.71 C0 10.24, 10.24 0, 30.71 0 M0 30.71 C0 10.24, 10.24 0, 30.71 0" stroke="#12b886" stroke-width="2" fill="none"></path></g><g transform="translate(3105.479910714286 134.62857142857163) rotate(0 90.234375 16.799999999999997)"><text x="90.234375" y="0" font-family="Cascadia, Segoe UI Emoji" font-size="28px" fill="#12b886" text-anchor="middle" style="white-space: pre;" direction="ltr" dominant-baseline="text-before-edge">PNG File(s)</text></g><g stroke-linecap="round" transform="translate(1085.7142857142867 347.1428571428572) rotate(0 304.2857142857147 59.99999999999994)"><path d="M30 0 C177.47 0, 324.95 0, 578.57 0 C598.57 0, 608.57 10, 608.57 30 C608.57 49.13, 608.57 68.26, 608.57 90 C608.57 110, 598.57 120, 578.57 120 C461.08 120, 343.59 120, 30 120 C10 120, 0 110, 0 90 C0 71.32, 0 52.65, 0 30 C0 10, 10 0, 30 0" stroke="none" stroke-width="0" fill="#1e1e1e"></path><path d="M30 0 C198.99 0, 367.97 0, 578.57 0 M30 0 C215.36 0, 400.72 0, 578.57 0 M578.57 0 C598.57 0, 608.57 10, 608.57 30 M578.57 0 C598.57 0, 608.57 10, 608.57 30 M608.57 30 C608.57 51.96, 608.57 73.92, 608.57 90 M608.57 30 C608.57 47.16, 608.57 64.31, 608.57 90 M608.57 90 C608.57 110, 598.57 120, 578.57 120 M608.57 90 C608.57 110, 598.57 120, 578.57 120 M578.57 120 C460.51 120, 342.44 120, 30 120 M578.57 120 C468.8 120, 359.03 120, 30 120 M30 120 C10 120, 0 110, 0 90 M30 120 C10 120, 0 110, 0 90 M0 90 C0 67.93, 0 45.85, 0 30 M0 90 C0 69.01, 0 48.01, 0 30 M0 30 C0 10, 10 0, 30 0 M0 30 C0 10, 10 0, 30 0" stroke="#12b886" stroke-width="2" fill="none"></path></g><g transform="translate(1193.1250000000014 390.34285714285716) rotate(0 196.875 16.800000000000004)"><text x="196.875" y="0" font-family="Cascadia, Segoe UI Emoji" font-size="28px" fill="#12b886" text-anchor="middle" style="white-space: pre;" direction="ltr" dominant-baseline="text-before-edge">convert_nifti_to_png_dir</text></g><g transform="translate(1227.1428571428573 307.1428571428571) rotate(0 172.2656249999999 16.8)"><text x="0" y="0" font-family="Cascadia, Segoe UI Emoji" font-size="28px" fill="#f08c00" text-anchor="start" style="white-space: pre;" direction="ltr" dominant-baseline="text-before-edge">(Multiple Files Path)</text></g><g transform="translate(2294.285714285714 302.8571428571428) rotate(0 147.65625 16.8)"><text x="0" y="0" font-family="Cascadia, Segoe UI Emoji" font-size="28px" fill="#f08c00" text-anchor="start" style="white-space: pre;" direction="ltr" dominant-baseline="text-before-edge">(Single File Path)</text></g><g transform="translate(934.2857142857148 10) rotate(0 123.046875 16.80000000000001)"><text x="0" y="0" font-family="Cascadia, Segoe UI Emoji" font-size="28px" fill="#f08c00" text-anchor="start" style="white-space: pre;" direction="ltr" dominant-baseline="text-before-edge">(Main Function)</text></g><g stroke-linecap="round"><g transform="translate(487.14285714285745 98.57142857142856) rotate(0 143.57213147929053 -9.24101041667555)"><path d="M0 -0.17 C13.6 -3.31, 33.56 -18.44, 81.39 -18.66 C129.22 -18.88, 252.72 -4.32, 286.98 -1.47 M-0.24 0.18 C13.34 -2.84, 33.28 -18.21, 81.22 -18.45 C129.15 -18.69, 253.1 -4.11, 287.38 -1.27" stroke="#2f9e44" stroke-width="2" fill="none"></path></g><g transform="translate(487.14285714285745 98.57142857142856) rotate(0 143.57213147929053 -9.24101041667555)"><path d="M258.32 6.16 C264.3 4.48, 270.78 2.62, 287.38 -1.27 M258.32 6.16 C266.45 3.94, 274.81 2.04, 287.38 -1.27" stroke="#2f9e44" stroke-width="2" fill="none"></path></g><g transform="translate(487.14285714285745 98.57142857142856) rotate(0 143.57213147929053 -9.24101041667555)"><path d="M260.34 -14.26 C265.92 -11.5, 271.96 -8.91, 287.38 -1.27 M260.34 -14.26 C267.87 -10.75, 275.66 -6.93, 287.38 -1.27" stroke="#2f9e44" stroke-width="2" fill="none"></path></g></g><mask></mask><g stroke-linecap="round"><g transform="translate(1275.7142857142862 117.14285714285711) rotate(0 834.2773135492378 13.525434261934038)"><path d="M-0.12 -0.09 C29.84 4.46, -98.96 26.54, 179.91 27.37 C458.77 28.21, 1424.27 8.61, 1673.09 4.91 M0.27 -0.35 C30.17 4.14, -99.13 26.15, 179.67 27.06 C458.47 27.98, 1424.19 8.84, 1673.05 5.12" stroke="#2f9e44" stroke-width="2" fill="none"></path></g><g transform="translate(1275.7142857142862 117.14285714285711) rotate(0 834.2773135492378 13.525434261934038)"><path d="M1645.04 15.86 C1655.3 11.71, 1666.35 8.32, 1673.05 5.12 M1645.04 15.86 C1652.14 13.23, 1659.28 10.42, 1673.05 5.12" stroke="#2f9e44" stroke-width="2" fill="none"></path></g><g transform="translate(1275.7142857142862 117.14285714285711) rotate(0 834.2773135492378 13.525434261934038)"><path d="M1644.68 -4.65 C1655.08 -1.16, 1666.27 3.1, 1673.05 5.12 M1644.68 -4.65 C1651.87 -2.02, 1659.1 0.43, 1673.05 5.12" stroke="#2f9e44" stroke-width="2" fill="none"></path></g></g><mask></mask><g stroke-linecap="round" transform="translate(2143.571428571429 342.8571428571426) rotate(0 290 59.99999999999994)"><path d="M30 0 C220.69 0, 411.37 0, 550 0 C570 0, 580 10, 580 30 C580 49.3, 580 68.59, 580 90 C580 110, 570 120, 550 120 C367.46 120, 184.91 120, 30 120 C10 120, 0 110, 0 90 C0 71.48, 0 52.95, 0 30 C0 10, 10 0, 30 0" stroke="none" stroke-width="0" fill="#1e1e1e"></path><path d="M30 0 C188.21 0, 346.42 0, 550 0 M30 0 C185.64 0, 341.28 0, 550 0 M550 0 C570 0, 580 10, 580 30 M550 0 C570 0, 580 10, 580 30 M580 30 C580 49.03, 580 68.05, 580 90 M580 30 C580 51, 580 71.99, 580 90 M580 90 C580 110, 570 120, 550 120 M580 90 C580 110, 570 120, 550 120 M550 120 C343.66 120, 137.32 120, 30 120 M550 120 C432.07 120, 314.13 120, 30 120 M30 120 C10 120, 0 110, 0 90 M30 120 C10 120, 0 110, 0 90 M0 90 C0 70.31, 0 50.62, 0 30 M0 90 C0 75.12, 0 60.24, 0 30 M0 30 C0 10, 10 0, 30 0 M0 30 C0 10, 10 0, 30 0" stroke="#12b886" stroke-width="2" fill="none"></path></g><g transform="translate(2269.508928571429 386.05714285714254) rotate(0 164.0625 16.800000000000004)"><text x="164.0625" y="0" font-family="Cascadia, Segoe UI Emoji" font-size="28px" fill="#12b886" text-anchor="middle" style="white-space: pre;" direction="ltr" dominant-baseline="text-before-edge">convert_nifti_to_png</text></g><g stroke-linecap="round"><g transform="translate(995.7142857142861 184.28571428571422) rotate(0 16.53149169177607 121.89146537171926)"><path d="M-0.12 -0.92 C-6.35 35.49, -49.64 179.1, -37.34 219.61 C-25.03 260.13, 55.27 238.5, 73.72 242.16 M-1.64 1.2 C-8.05 38.29, -50.89 181.11, -38.39 220.94 C-25.88 260.78, 54.7 236.56, 73.41 240.2" stroke="#2f9e44" stroke-width="2" fill="none"></path></g><g transform="translate(995.7142857142861 184.28571428571422) rotate(0 16.53149169177607 121.89146537171926)"><path d="M45.87 252.1 C52.65 248.16, 61.98 246.28, 73.41 240.2 M45.87 252.1 C54.97 248.54, 64.82 243.56, 73.41 240.2" stroke="#2f9e44" stroke-width="2" fill="none"></path></g><g transform="translate(995.7142857142861 184.28571428571422) rotate(0 16.53149169177607 121.89146537171926)"><path d="M44.67 231.61 C52.01 233.95, 61.71 238.35, 73.41 240.2 M44.67 231.61 C54.29 235.45, 64.57 237.87, 73.41 240.2" stroke="#2f9e44" stroke-width="2" fill="none"></path></g></g><mask></mask><g stroke-linecap="round"><g transform="translate(1710.0000000000005 415.71428571428567) rotate(0 206.45498382601863 -3.462144995562049)"><path d="M-0.08 -0.11 C68.72 -1.28, 343.87 -5.94, 412.7 -7.12 M0.18 0.19 C69.03 -0.94, 344.21 -5.69, 412.99 -6.9" stroke="#2f9e44" stroke-width="2" fill="none"></path></g><g transform="translate(1710.0000000000005 415.71428571428567) rotate(0 206.45498382601863 -3.462144995562049)"><path d="M384.98 3.85 C392.13 0.75, 399.73 -1.67, 412.99 -6.9 M384.98 3.85 C392.96 0.68, 400.46 -2.11, 412.99 -6.9" stroke="#2f9e44" stroke-width="2" fill="none"></path></g><g transform="translate(1710.0000000000005 415.71428571428567) rotate(0 206.45498382601863 -3.462144995562049)"><path d="M384.62 -16.67 C391.84 -14.39, 399.54 -11.42, 412.99 -6.9 M384.62 -16.67 C392.69 -14.12, 400.29 -11.17, 412.99 -6.9" stroke="#2f9e44" stroke-width="2" fill="none"></path></g></g><mask></mask><g stroke-linecap="round" transform="translate(2150.0000000000005 572.8571428571429) rotate(0 290 59.99999999999994)"><path d="M30 0 C170.57 0, 311.13 0, 550 0 C570 0, 580 10, 580 30 C580 42.74, 580 55.49, 580 90 C580 110, 570 120, 550 120 C411.56 120, 273.12 120, 30 120 C10 120, 0 110, 0 90 C0 77.39, 0 64.77, 0 30 C0 10, 10 0, 30 0" stroke="none" stroke-width="0" fill="#1e1e1e"></path><path d="M30 0 C209.5 0, 389.01 0, 550 0 M30 0 C142.13 0, 254.27 0, 550 0 M550 0 C570 0, 580 10, 580 30 M550 0 C570 0, 580 10, 580 30 M580 30 C580 53.02, 580 76.04, 580 90 M580 30 C580 53.9, 580 77.79, 580 90 M580 90 C580 110, 570 120, 550 120 M580 90 C580 110, 570 120, 550 120 M550 120 C346 120, 141.99 120, 30 120 M550 120 C430.38 120, 310.75 120, 30 120 M30 120 C10 120, 0 110, 0 90 M30 120 C10 120, 0 110, 0 90 M0 90 C0 71.26, 0 52.53, 0 30 M0 90 C0 77.92, 0 65.85, 0 30 M0 30 C0 10, 10 0, 30 0 M0 30 C0 10, 10 0, 30 0" stroke="#12b886" stroke-width="2" fill="none"></path></g><g transform="translate(2333.3593750000005 616.0571428571427) rotate(0 106.640625 16.80000000000001)"><text x="106.640625" y="0" font-family="Cascadia, Segoe UI Emoji" font-size="28px" fill="#12b886" text-anchor="middle" style="white-space: pre;" direction="ltr" dominant-baseline="text-before-edge">prepare_image</text></g><g stroke-linecap="round"><g transform="translate(2122.857142857143 447.142857142857) rotate(0 -51.30830803658705 87.93561807625666)"><path d="M-0.01 -0.11 C-17.84 22.79, -107.74 108.8, -106.89 138.11 C-106.04 167.41, -13.46 169.58, 5.1 175.74 M-1.48 -1.21 C-19.44 21.78, -108.75 109.68, -107.71 139.4 C-106.67 169.11, -13.99 170.99, 4.76 177.08" stroke="#2f9e44" stroke-width="2" fill="none"></path></g><g transform="translate(2122.857142857143 447.142857142857) rotate(0 -51.30830803658705 87.93561807625666)"><path d="M-24.7 182.73 C-15.98 181.44, -7.66 180.67, 4.76 177.08 M-24.7 182.73 C-16.28 180.22, -7.68 180.44, 4.76 177.08" stroke="#2f9e44" stroke-width="2" fill="none"></path></g><g transform="translate(2122.857142857143 447.142857142857) rotate(0 -51.30830803658705 87.93561807625666)"><path d="M-21.44 162.47 C-13.59 167.32, -6.25 172.68, 4.76 177.08 M-21.44 162.47 C-13.97 166.07, -6.36 172.42, 4.76 177.08" stroke="#2f9e44" stroke-width="2" fill="none"></path></g></g><mask></mask><g transform="translate(2276.305803571429 700.3428571428569) rotate(0 155.859375 16.80000000000001)"><text x="0" y="0" font-family="Cascadia, Segoe UI Emoji" font-size="28px" fill="#f08c00" text-anchor="start" style="white-space: pre;" direction="ltr" dominant-baseline="text-before-edge">(Image Preparation)</text></g></svg>