<svg version="1.1" xmlns="http://www.w3.org/2000/svg" viewBox="0 0 3002.8571428571427 190.74285714285702" width="3002.8571428571427" height="190.74285714285702" filter="invert(93%) hue-rotate(180deg)">
  <!-- svg-source:excalidraw -->
  
  <defs>
    <style class="style-fonts">
      @font-face {
        font-family: "Virgil";
        src: url("https://excalidraw.com/Virgil.woff2");
      }
      @font-face {
        font-family: "Cascadia";
        src: url("https://excalidraw.com/Cascadia.woff2");
      }
    </style>
    
  </defs>
  <g stroke-linecap="round" transform="translate(10 10) rotate(0 232.85714285714295 61.42857142857139)"><path d="M30.71 0 C181.33 0, 331.94 0, 435 0 C455.48 0, 465.71 10.24, 465.71 30.71 C465.71 54.95, 465.71 79.19, 465.71 92.14 C465.71 112.62, 455.48 122.86, 435 122.86 C335.95 122.86, 236.91 122.86, 30.71 122.86 C10.24 122.86, 0 112.62, 0 92.14 C0 79.33, 0 66.51, 0 30.71 C0 10.24, 10.24 0, 30.71 0" stroke="none" stroke-width="0" fill="#1e1e1e"></path><path d="M30.71 0 C145.42 0, 260.13 0, 435 0 M30.71 0 C145.7 0, 260.69 0, 435 0 M435 0 C455.48 0, 465.71 10.24, 465.71 30.71 M435 0 C455.48 0, 465.71 10.24, 465.71 30.71 M465.71 30.71 C465.71 46.65, 465.71 62.59, 465.71 92.14 M465.71 30.71 C465.71 48.9, 465.71 67.08, 465.71 92.14 M465.71 92.14 C465.71 112.62, 455.48 122.86, 435 122.86 M465.71 92.14 C465.71 112.62, 455.48 122.86, 435 122.86 M435 122.86 C286.94 122.86, 138.88 122.86, 30.71 122.86 M435 122.86 C298.61 122.86, 162.21 122.86, 30.71 122.86 M30.71 122.86 C10.24 122.86, 0 112.62, 0 92.14 M30.71 122.86 C10.24 122.86, 0 112.62, 0 92.14 M0 92.14 C0 68.51, 0 44.87, 0 30.71 M0 92.14 C0 74.63, 0 57.11, 0 30.71 M0 30.71 C0 10.24, 10.24 0, 30.71 0 M0 30.71 C0 10.24, 10.24 0, 30.71 0" stroke="#12b886" stroke-width="2" fill="none"></path></g><g transform="translate(136.216517857143 54.62857142857138) rotate(0 106.640625 16.80000000000001)"><text x="106.640625" y="0" font-family="Cascadia, Segoe UI Emoji" font-size="28px" fill="#12b886" text-anchor="middle" style="white-space: pre;" direction="ltr" dominant-baseline="text-before-edge">NIFTI File(s)</text></g><g stroke-linecap="round" transform="translate(640.0000000000006 12.85714285714289) rotate(0 232.857142857143 61.42857142857139)"><path d="M30.71 0 C176.76 0, 322.8 0, 435 0 C455.48 0, 465.71 10.24, 465.71 30.71 C465.71 53.06, 465.71 75.4, 465.71 92.14 C465.71 112.62, 455.48 122.86, 435 122.86 C336.59 122.86, 238.19 122.86, 30.71 122.86 C10.24 122.86, 0 112.62, 0 92.14 C0 76.99, 0 61.85, 0 30.71 C0 10.24, 10.24 0, 30.71 0" stroke="none" stroke-width="0" fill="#1e1e1e"></path><path d="M30.71 0 C184.11 0, 337.5 0, 435 0 M30.71 0 C173.76 0, 316.8 0, 435 0 M435 0 C455.48 0, 465.71 10.24, 465.71 30.71 M435 0 C455.48 0, 465.71 10.24, 465.71 30.71 M465.71 30.71 C465.71 45.05, 465.71 59.4, 465.71 92.14 M465.71 30.71 C465.71 50.24, 465.71 69.76, 465.71 92.14 M465.71 92.14 C465.71 112.62, 455.48 122.86, 435 122.86 M465.71 92.14 C465.71 112.62, 455.48 122.86, 435 122.86 M435 122.86 C304.72 122.86, 174.44 122.86, 30.71 122.86 M435 122.86 C320.94 122.86, 206.88 122.86, 30.71 122.86 M30.71 122.86 C10.24 122.86, 0 112.62, 0 92.14 M30.71 122.86 C10.24 122.86, 0 112.62, 0 92.14 M0 92.14 C0 77.91, 0 63.69, 0 30.71 M0 92.14 C0 78.97, 0 65.8, 0 30.71 M0 30.71 C0 10.24, 10.24 0, 30.71 0 M0 30.71 C0 10.24, 10.24 0, 30.71 0" stroke="#12b886" stroke-width="2" fill="none"></path></g><g transform="translate(725.2008928571435 57.485714285714266) rotate(0 147.65625 16.80000000000001)"><text x="147.65625" y="0" font-family="Cascadia, Segoe UI Emoji" font-size="28px" fill="#12b886" text-anchor="middle" style="white-space: pre;" direction="ltr" dominant-baseline="text-before-edge">nifti2dicom_mfiles</text></g><g stroke-linecap="round" transform="translate(1280.0000000000005 11.428571428571445) rotate(0 232.8571428571429 61.42857142857139)"><path d="M30.71 0 C126.95 0, 223.19 0, 435 0 C455.48 0, 465.71 10.24, 465.71 30.71 C465.71 48.12, 465.71 65.52, 465.71 92.14 C465.71 112.62, 455.48 122.86, 435 122.86 C294.33 122.86, 153.67 122.86, 30.71 122.86 C10.24 122.86, 0 112.62, 0 92.14 C0 75.77, 0 59.39, 0 30.71 C0 10.24, 10.24 0, 30.71 0" stroke="none" stroke-width="0" fill="#1e1e1e"></path><path d="M30.71 0 C176.37 0, 322.03 0, 435 0 M30.71 0 C134.84 0, 238.97 0, 435 0 M435 0 C455.48 0, 465.71 10.24, 465.71 30.71 M435 0 C455.48 0, 465.71 10.24, 465.71 30.71 M465.71 30.71 C465.71 49.19, 465.71 67.66, 465.71 92.14 M465.71 30.71 C465.71 52.38, 465.71 74.04, 465.71 92.14 M465.71 92.14 C465.71 112.62, 455.48 122.86, 435 122.86 M465.71 92.14 C465.71 112.62, 455.48 122.86, 435 122.86 M435 122.86 C345.95 122.86, 256.9 122.86, 30.71 122.86 M435 122.86 C303.25 122.86, 171.51 122.86, 30.71 122.86 M30.71 122.86 C10.24 122.86, 0 112.62, 0 92.14 M30.71 122.86 C10.24 122.86, 0 112.62, 0 92.14 M0 92.14 C0 74.82, 0 57.49, 0 30.71 M0 92.14 C0 71.85, 0 51.56, 0 30.71 M0 30.71 C0 10.24, 10.24 0, 30.71 0 M0 30.71 C0 10.24, 10.24 0, 30.71 0" stroke="#12b886" stroke-width="2" fill="none"></path></g><g transform="translate(1373.4040178571436 56.05714285714282) rotate(0 139.453125 16.80000000000001)"><text x="139.453125" y="0" font-family="Cascadia, Segoe UI Emoji" font-size="28px" fill="#12b886" text-anchor="middle" style="white-space: pre;" direction="ltr" dominant-baseline="text-before-edge">nifti2dicom_1file</text></g><g stroke-linecap="round" transform="translate(1898.571428571429 15.714285714285552) rotate(0 232.8571428571429 61.42857142857139)"><path d="M30.71 0 C139.4 0, 248.09 0, 435 0 C455.48 0, 465.71 10.24, 465.71 30.71 C465.71 50.3, 465.71 69.89, 465.71 92.14 C465.71 112.62, 455.48 122.86, 435 122.86 C348.41 122.86, 261.83 122.86, 30.71 122.86 C10.24 122.86, 0 112.62, 0 92.14 C0 73.02, 0 53.9, 0 30.71 C0 10.24, 10.24 0, 30.71 0" stroke="none" stroke-width="0" fill="#1e1e1e"></path><path d="M30.71 0 C155.25 0, 279.79 0, 435 0 M30.71 0 C167.32 0, 303.93 0, 435 0 M435 0 C455.48 0, 465.71 10.24, 465.71 30.71 M435 0 C455.48 0, 465.71 10.24, 465.71 30.71 M465.71 30.71 C465.71 53.2, 465.71 75.68, 465.71 92.14 M465.71 30.71 C465.71 48.28, 465.71 65.85, 465.71 92.14 M465.71 92.14 C465.71 112.62, 455.48 122.86, 435 122.86 M465.71 92.14 C465.71 112.62, 455.48 122.86, 435 122.86 M435 122.86 C347.99 122.86, 260.98 122.86, 30.71 122.86 M435 122.86 C354.1 122.86, 273.2 122.86, 30.71 122.86 M30.71 122.86 C10.24 122.86, 0 112.62, 0 92.14 M30.71 122.86 C10.24 122.86, 0 112.62, 0 92.14 M0 92.14 C0 69.54, 0 46.94, 0 30.71 M0 92.14 C0 70.65, 0 49.15, 0 30.71 M0 30.71 C0 10.24, 10.24 0, 30.71 0 M0 30.71 C0 10.24, 10.24 0, 30.71 0" stroke="#12b886" stroke-width="2" fill="none"></path></g><g transform="translate(2041.194196428572 60.34285714285693) rotate(0 90.234375 16.80000000000001)"><text x="90.234375" y="0" font-family="Cascadia, Segoe UI Emoji" font-size="28px" fill="#12b886" text-anchor="middle" style="white-space: pre;" direction="ltr" dominant-baseline="text-before-edge">writeSlices</text></g><g stroke-linecap="round" transform="translate(2527.142857142857 15.714285714285666) rotate(0 232.8571428571429 61.42857142857139)"><path d="M30.71 0 C117.23 0, 203.76 0, 435 0 C455.48 0, 465.71 10.24, 465.71 30.71 C465.71 54.74, 465.71 78.76, 465.71 92.14 C465.71 112.62, 455.48 122.86, 435 122.86 C338.49 122.86, 241.97 122.86, 30.71 122.86 C10.24 122.86, 0 112.62, 0 92.14 C0 76.27, 0 60.39, 0 30.71 C0 10.24, 10.24 0, 30.71 0" stroke="none" stroke-width="0" fill="#1e1e1e"></path><path d="M30.71 0 C134.98 0, 239.25 0, 435 0 M30.71 0 C163.64 0, 296.56 0, 435 0 M435 0 C455.48 0, 465.71 10.24, 465.71 30.71 M435 0 C455.48 0, 465.71 10.24, 465.71 30.71 M465.71 30.71 C465.71 46.99, 465.71 63.27, 465.71 92.14 M465.71 30.71 C465.71 50.46, 465.71 70.2, 465.71 92.14 M465.71 92.14 C465.71 112.62, 455.48 122.86, 435 122.86 M465.71 92.14 C465.71 112.62, 455.48 122.86, 435 122.86 M435 122.86 C340.92 122.86, 246.83 122.86, 30.71 122.86 M435 122.86 C288.82 122.86, 142.63 122.86, 30.71 122.86 M30.71 122.86 C10.24 122.86, 0 112.62, 0 92.14 M30.71 122.86 C10.24 122.86, 0 112.62, 0 92.14 M0 92.14 C0 69.58, 0 47.02, 0 30.71 M0 92.14 C0 67.92, 0 43.69, 0 30.71 M0 30.71 C0 10.24, 10.24 0, 30.71 0 M0 30.71 C0 10.24, 10.24 0, 30.71 0" stroke="#12b886" stroke-width="2" fill="none"></path></g><g transform="translate(2653.359375 60.34285714285704) rotate(0 106.640625 16.80000000000001)"><text x="106.640625" y="0" font-family="Cascadia, Segoe UI Emoji" font-size="28px" fill="#12b886" text-anchor="middle" style="white-space: pre;" direction="ltr" dominant-baseline="text-before-edge">DICOM File(s)</text></g><g stroke-linecap="round"><g transform="translate(485.7142857142861 78.57142857142844) rotate(0 67.20829921199925 -12.824918783706238)"><path d="M0.13 -0.16 C15.18 -4.44, 67.8 -25.48, 90.12 -25.91 C112.45 -26.33, 126.71 -6.52, 134.06 -2.71 M-0.09 0.26 C14.96 -3.98, 67.57 -25.15, 90 -25.7 C112.44 -26.26, 127.13 -6.88, 134.5 -3.08" stroke="#12b886" stroke-width="2" fill="none"></path></g><g transform="translate(485.7142857142861 78.57142857142844) rotate(0 67.20829921199925 -12.824918783706238)"><path d="M110.77 -10.66 C115.83 -8.73, 121.16 -7.69, 134.5 -3.08 M110.77 -10.66 C119.58 -7.75, 127.87 -4.97, 134.5 -3.08" stroke="#12b886" stroke-width="2" fill="none"></path></g><g transform="translate(485.7142857142861 78.57142857142844) rotate(0 67.20829921199925 -12.824918783706238)"><path d="M121.19 -24.15 C123.86 -19.14, 126.83 -15.03, 134.5 -3.08 M121.19 -24.15 C126.2 -16.34, 130.7 -8.65, 134.5 -3.08" stroke="#12b886" stroke-width="2" fill="none"></path></g></g><mask></mask><g stroke-linecap="round"><g transform="translate(1124.2857142857147 75.71428571428555) rotate(0 68.54313265262306 -17.17167198211189)"><path d="M-0.29 0.19 C11.82 -5.52, 49.84 -33.8, 72.78 -34.52 C95.73 -35.24, 126.68 -9.2, 137.37 -4.14 M0.1 0.03 C12.15 -5.63, 49.65 -33.48, 72.51 -34.26 C95.38 -35.04, 126.58 -9.57, 137.3 -4.63" stroke="#12b886" stroke-width="2" fill="none"></path></g><g transform="translate(1124.2857142857147 75.71428571428555) rotate(0 68.54313265262306 -17.17167198211189)"><path d="M107.87 -10.46 C118.61 -8.47, 128.19 -5.83, 137.3 -4.63 M107.87 -10.46 C118.09 -8.33, 128.75 -6.26, 137.3 -4.63" stroke="#12b886" stroke-width="2" fill="none"></path></g><g transform="translate(1124.2857142857147 75.71428571428555) rotate(0 68.54313265262306 -17.17167198211189)"><path d="M118.51 -28.01 C125.45 -19.85, 131.28 -11.02, 137.3 -4.63 M118.51 -28.01 C124.95 -19.71, 131.89 -11.5, 137.3 -4.63" stroke="#12b886" stroke-width="2" fill="none"></path></g></g><mask></mask><g stroke-linecap="round"><g transform="translate(1762.8571428571431 81.42857142857122) rotate(0 60.71167788558455 -11.45851106458997)"><path d="M-0.07 0.02 C5.93 -4.28, 15.67 -26.12, 35.94 -25.61 C56.2 -25.1, 107.28 -1.69, 121.49 3.09 M0.35 -0.19 C6.34 -4.58, 15.68 -26.49, 35.85 -26 C56.02 -25.52, 107.14 -2.06, 121.37 2.72" stroke="#12b886" stroke-width="2" fill="none"></path></g><g transform="translate(1762.8571428571431 81.42857142857122) rotate(0 60.71167788558455 -11.45851106458997)"><path d="M91.38 1.97 C99.81 2.62, 108.36 2.54, 121.37 2.72 M91.38 1.97 C103.25 2.24, 114.81 2.34, 121.37 2.72" stroke="#12b886" stroke-width="2" fill="none"></path></g><g transform="translate(1762.8571428571431 81.42857142857122) rotate(0 60.71167788558455 -11.45851106458997)"><path d="M98.88 -17.13 C105.25 -11.14, 111.7 -5.88, 121.37 2.72 M98.88 -17.13 C107.77 -9.34, 116.39 -1.73, 121.37 2.72" stroke="#12b886" stroke-width="2" fill="none"></path></g></g><mask></mask><g stroke-linecap="round"><g transform="translate(2382.857142857143 87.142857142857) rotate(0 65.77211346885042 -9.282751409721016)"><path d="M-0.09 0.17 C6.13 -2.96, 15.32 -18.45, 37.21 -18.73 C59.1 -19.01, 115.57 -4.39, 131.25 -1.51 M0.22 0.09 C6.44 -3.03, 15.19 -18.33, 37.09 -18.56 C58.99 -18.8, 115.95 -4.2, 131.64 -1.33" stroke="#12b886" stroke-width="2" fill="none"></path></g><g transform="translate(2382.857142857143 87.142857142857) rotate(0 65.77211346885042 -9.282751409721016)"><path d="M101.91 2.72 C109.46 1.9, 116.04 0.43, 131.64 -1.33 M101.91 2.72 C109.83 1.57, 117.63 0.66, 131.64 -1.33" stroke="#12b886" stroke-width="2" fill="none"></path></g><g transform="translate(2382.857142857143 87.142857142857) rotate(0 65.77211346885042 -9.282751409721016)"><path d="M106.27 -17.33 C112.77 -13.29, 118.29 -9.88, 131.64 -1.33 M106.27 -17.33 C113.01 -13.23, 119.67 -8.89, 131.64 -1.33" stroke="#12b886" stroke-width="2" fill="none"></path></g></g><mask></mask><g transform="translate(692.857142857143 144.2857142857141) rotate(0 172.265625 16.80000000000001)"><text x="0" y="0" font-family="Cascadia, Segoe UI Emoji" font-size="28px" fill="#f08c00" text-anchor="start" style="white-space: pre;" direction="ltr" dominant-baseline="text-before-edge">(Multiple Files Path)</text></g><g transform="translate(1365.7142857142862 141.42857142857122) rotate(0 147.65625 16.80000000000001)"><text x="0" y="0" font-family="Cascadia, Segoe UI Emoji" font-size="28px" fill="#f08c00" text-anchor="start" style="white-space: pre;" direction="ltr" dominant-baseline="text-before-edge">(Single File Path)</text></g><g transform="translate(2058.571428571429 147.142857142857) rotate(0 65.625 16.80000000000001)"><text x="0" y="0" font-family="Cascadia, Segoe UI Emoji" font-size="28px" fill="#f08c00" text-anchor="start" style="white-space: pre;" direction="ltr" dominant-baseline="text-before-edge">(Helper)</text></g></svg>